<?xml version="1.0" encoding="UTF-8"?>
<!DOCTYPE svg PUBLIC "-//W3C//DTD SVG 1.1//EN" "http://www.w3.org/Graphics/SVG/1.1/DTD/svg11.dtd">
<!-- Creator: CorelDRAW X6 -->
<svg xmlns="http://www.w3.org/2000/svg" xml:space="preserve" width="135.27mm" height="110mm" version="1.1" style="shape-rendering:geometricPrecision; text-rendering:geometricPrecision; image-rendering:optimizeQuality; fill-rule:evenodd; clip-rule:evenodd"
viewBox="0 0 13527 11000"
 xmlns:xlink="http://www.w3.org/1999/xlink">
 <defs>
  <style type="text/css">
   <![CDATA[
    .str1 {stroke:#2B2A29;stroke-width:20;stroke-linecap:round;stroke-linejoin:bevel}
    .str0 {stroke:#898989;stroke-width:25}
    .str2 {stroke:#434242;stroke-width:200;stroke-linecap:round;stroke-linejoin:bevel}
    .str3 {stroke:#B2B3B3;stroke-width:500;stroke-linecap:round;stroke-linejoin:bevel}
    .str5 {stroke:#00B0FF;stroke-width:500;stroke-linecap:round}
    .str4 {stroke:#00B0FF;stroke-width:500;stroke-linecap:round;stroke-linejoin:bevel}
    .fil1 {fill:none}
    .fil0 {fill:#696860}
    .fil2 {fill:#B2B3B3;fill-rule:nonzero}
    .fil3 {fill:#00B0FF;fill-rule:nonzero}
    .fil4 {fill:#00E5FF;fill-rule:nonzero}
   ]]>
  </style>
 </defs>
 <g id="Слой_x0020_1">
  <metadata id="CorelCorpID_0Corel-Layer"/>
  <polygon class="fil0 str0" points="8051,406 10664,1681 13278,2955 13278,5504 13278,8053 10664,9328 8051,10603 5437,9328 2824,8053 2824,5504 2824,2955 5437,1681 "/>
  <polygon class="fil1 str1" points="2824,5497 4130,4844 5437,4190 5437,2884 5437,1577 4130,924 2824,270 1517,924 210,1577 210,2884 210,4190 1517,4844 "/>
  <line class="fil1 str2" x1="210" y1="9418" x2="2824" y2= "8111" />
  <line class="fil1 str2" x1="8051" y1="5497" x2="13278" y2= "2884" />
  <line class="fil1 str2" x1="8051" y1="5497" x2="8051" y2= "10724" />
  <line class="fil1 str3" x1="5437" y1="4190" x2="2824" y2= "5497" />
  <line class="fil1 str3" x1="5437" y1="1577" x2="5437" y2= "4190" />
  <line class="fil1 str2" x1="210" y1="1577" x2="8051" y2= "5497" />
  <line class="fil1 str4" x1="280" y1="1574" x2="280" y2= "4194" />
  <line class="fil1 str3" x1="2774" y1="5522" x2="260" y2= "6779" />
  <g>
   <path class="fil2" d="M13278 8361l0 -500 0 0 0 1 0 1 0 3 0 2 0 4 0 3 1 5 0 5 0 5 0 6 0 7 0 7 0 7 0 8 0 8 0 9 1 9 0 9 0 10 0 10 0 10 0 11 0 11 0 12 0 11 0 12 0 12 0 12 0 13 0 13 0 12 0 13 0 13 0 13 0 12 0 12 0 12 0 12 0 11 0 11 0 11 0 10 0 10 0 10 0 10 -1 9 0 9 0 8 0 8 0 7 0 7 0 7 0 6 0 6 0 5 0 4 -1 4 0 4 0 2 0 3 0 1 0 1 0 1zm-5227 2113l5227 -2613 0 500 -5227 2613 0 -500zm0 0l0 500 -1 0 0 -1 0 -1 0 -3 0 -2 0 -4 0 -3 0 -5 0 -5 -1 -5 0 -6 0 -7 0 -7 0 -7 0 -8 0 -8 0 -9 0 -9 0 -9 0 -10 -1 -10 0 -10 0 -11 0 -11 0 -12 0 -11 0 -12 0 -12 0 -12 0 -13 0 -13 0 -12 0 -13 0 -13 0 -13 0 -12 0 -12 0 -12 0 -12 0 -11 0 -11 0 -11 0 -10 1 -10 0 -10 0 -10 0 -9 0 -9 0 -8 0 -8 0 -7 0 -7 0 -7 0 -6 1 -6 0 -5 0 -4 0 -4 0 -4 0 -2 0 -3 0 -1 0 -1 1 -1z"/>
  </g>
  <g>
   <path class="fil3" d="M2824 10974l0 -500 0 1 0 1 0 1 0 3 0 2 0 4 0 4 1 4 0 5 0 6 0 6 0 7 0 7 0 7 0 8 0 8 0 9 0 9 1 10 0 10 0 10 0 10 0 11 0 11 0 11 0 12 0 12 0 12 0 12 0 13 0 13 0 13 0 12 0 13 0 13 0 12 0 12 0 12 0 11 0 12 0 11 0 11 0 10 0 10 0 10 -1 9 0 9 0 9 0 8 0 8 0 7 0 7 0 7 0 6 0 5 -1 5 0 5 0 3 0 4 0 2 0 3 0 1 0 1 0 0zm-2614 -1806l2614 1306 0 500 -2614 -1306 0 -500zm0 0l0 500 0 -1 0 -1 0 -2 -1 -2 0 -3 0 -3 0 -4 0 -5 0 -5 0 -5 0 -6 0 -7 0 -7 -1 -7 0 -8 0 -9 0 -8 0 -9 0 -10 0 -10 0 -10 0 -10 0 -11 0 -11 0 -12 0 -11 0 -12 0 -12 0 -13 0 -12 0 -13 0 -13 0 -13 0 -12 0 -13 0 -12 0 -12 0 -12 0 -12 0 -11 0 -11 0 -11 0 -10 0 -10 0 -10 0 -9 0 -10 0 -8 0 -8 0 -8 1 -8 0 -6 0 -7 0 -6 0 -5 0 -5 0 -5 0 -4 0 -3 1 -3 0 -2 0 -1 0 -1 0 0z"/>
  </g>
  <line class="fil1 str3" x1="260" y1="6804" x2="260" y2= "9418" />
  <g>
   <path class="fil2" d="M8051 20l0 500 -3 -1 0 -500 3 1zm5227 3114l-5227 -2614 0 -500 5227 2614 0 500zm0 0l0 -500 2 1 0 500 -2 -1z"/>
  </g>
  <line class="fil1 str3" x1="13278" y1="2884" x2="13278" y2= "8111" />
  <g>
   <path class="fil4" d="M3006 2870l-275 0 0 -12 1 -13 0 -13 2 -12 1 -12 2 -12 2 -12 3 -11 2 -11 3 -11 4 -10 3 -10 4 -10 4 -10 5 -9 4 -8 5 -9 5 -8 5 -7 5 -7 6 -6 6 -6 6 -6 6 -5 6 -4 6 -4 7 -4 7 -3 6 -2 7 -1 7 -1 7 -1 7 1 7 1 7 1 7 2 7 3 6 4 7 4 6 4 6 5 6 6 6 6 5 6 6 7 5 7 5 8 5 9 4 8 4 9 5 10 3 10 4 10 3 10 3 11 3 11 3 11 2 12 2 12 1 12 1 12 1 13 1 13 0 12zm-275 5255l0 -5255 275 0 0 5255 -275 0zm0 0l275 0 0 13 -1 13 -1 12 -1 13 -1 12 -2 12 -2 11 -3 12 -3 11 -3 11 -3 10 -4 10 -3 10 -5 9 -4 10 -4 8 -5 8 -5 8 -5 8 -6 7 -5 6 -6 6 -6 6 -6 5 -6 4 -7 4 -6 4 -7 2 -7 3 -7 1 -7 1 -7 0 -7 0 -7 -1 -7 -1 -6 -3 -7 -2 -7 -4 -6 -4 -6 -4 -6 -5 -6 -6 -6 -6 -6 -6 -5 -7 -5 -8 -5 -8 -5 -8 -4 -8 -5 -10 -4 -9 -4 -10 -3 -10 -4 -10 -3 -11 -2 -11 -3 -12 -2 -11 -2 -12 -1 -12 -2 -13 0 -12 -1 -13 0 -13z"/>
  </g>
  <g>
   <path class="fil3" d="M210 3940l0 500 -3 -1 1 -500 2 1zm2614 1807l-2614 -1307 0 -500 2614 1307 0 500zm0 0l0 -500 2 1 0 500 -2 -1z"/>
  </g>
  <g>
   <path class="fil3" d="M2824 5247l0 500 -1 0 0 -1 0 -2 0 -2 0 -3 0 -3 0 -4 0 -5 -1 -5 0 -6 0 -6 0 -6 0 -7 0 -8 0 -8 0 -8 0 -9 0 -9 0 -9 -1 -10 0 -10 0 -11 0 -11 0 -11 0 -11 0 -12 0 -12 0 -12 0 -12 0 -12 0 -13 0 -13 0 -13 0 -13 0 -12 0 -12 0 -12 0 -12 0 -12 0 -11 0 -11 0 -11 0 -10 0 -11 1 -9 0 -10 0 -9 0 -8 0 -9 0 -7 0 -8 0 -7 0 -6 0 -6 0 -6 1 -5 0 -4 0 -4 0 -3 0 -3 0 -2 0 -2 0 -1 1 0zm2613 1807l-2613 -1307 0 -500 2613 1307 0 500zm0 0l0 -500 0 0 0 1 0 2 1 2 0 3 0 4 0 4 0 4 0 5 0 6 0 6 0 6 1 7 0 8 0 8 0 8 0 9 0 9 0 9 0 10 0 10 0 11 0 11 0 11 0 11 0 12 0 12 1 12 0 12 0 13 0 12 0 13 0 13 0 13 0 12 0 13 -1 12 0 12 0 11 0 11 0 11 0 11 0 11 0 10 0 10 0 9 0 9 0 9 0 8 0 8 0 7 -1 7 0 6 0 6 0 6 0 5 0 4 0 4 0 3 0 3 -1 2 0 2 0 1 0 0z"/>
  </g>
  <line class="fil1 str5" x1="5377" y1="9403" x2="5377" y2= "6799" />
  <g>
   <path class="fil3" d="M5437 9668l0 -500 0 0 0 1 0 1 1 2 0 3 0 3 0 4 0 5 0 5 0 5 0 6 0 7 1 6 0 8 0 8 0 8 0 8 0 10 0 9 0 10 0 10 0 10 0 11 0 11 0 11 0 12 0 12 1 12 0 12 0 13 0 12 0 13 0 13 0 13 0 12 0 13 -1 12 0 12 0 11 0 12 0 11 0 11 0 10 0 10 0 10 0 10 0 9 0 8 0 9 0 8 0 7 -1 7 0 7 0 6 0 5 0 5 0 5 0 4 0 3 0 3 -1 2 0 2 0 1 0 1zm-2613 806l2613 -1306 0 500 -2613 1306 0 -500zm0 0l0 500 -1 0 0 -1 0 -1 0 -3 0 -2 0 -4 0 -3 0 -5 -1 -5 0 -5 0 -6 0 -7 0 -7 0 -7 0 -8 0 -8 0 -9 0 -9 0 -9 -1 -10 0 -10 0 -10 0 -11 0 -11 0 -12 0 -11 0 -12 0 -12 0 -12 0 -13 0 -13 0 -12 0 -13 0 -13 0 -13 0 -12 0 -12 0 -12 0 -12 0 -11 0 -11 0 -11 0 -10 0 -10 1 -10 0 -10 0 -9 0 -9 0 -8 0 -8 0 -7 0 -7 0 -7 0 -6 0 -6 1 -5 0 -4 0 -4 0 -4 0 -2 0 -3 0 -1 0 -1 1 -1z"/>
  </g>
  <g>
   <path class="fil4" d="M8062 10980l0 -500 0 0 0 1 0 2 1 2 0 3 0 4 0 4 0 4 0 5 0 6 0 6 0 6 1 7 0 8 0 8 0 8 0 9 0 9 0 9 0 10 0 10 0 11 0 11 0 11 0 11 0 12 0 12 1 12 0 12 0 13 0 12 0 13 0 13 0 13 0 12 0 13 -1 12 0 12 0 11 0 11 0 12 0 10 0 11 0 10 0 10 0 9 0 9 0 9 0 8 0 8 0 7 -1 7 0 6 0 6 0 6 0 5 0 4 0 4 0 3 0 3 -1 2 0 2 0 1 0 0zm-5250 -3125l5250 2625 0 500 -5250 -2625 0 -500zm0 0l0 500 0 0 0 -1 0 -2 0 -2 -1 -3 0 -4 0 -4 0 -4 0 -5 0 -6 0 -6 0 -6 0 -7 -1 -8 0 -8 0 -8 0 -9 0 -9 0 -9 0 -10 0 -10 0 -11 0 -11 0 -11 0 -11 0 -12 0 -12 0 -12 0 -12 0 -13 0 -12 0 -13 0 -13 0 -13 0 -12 0 -13 0 -12 0 -12 0 -11 0 -11 0 -12 0 -10 0 -11 0 -10 0 -10 0 -9 0 -9 0 -9 0 -8 0 -8 1 -7 0 -7 0 -6 0 -6 0 -6 0 -5 0 -4 0 -4 0 -3 1 -3 0 -2 0 -2 0 -1 0 0z"/>
  </g>
  <g>
   <path class="fil3" d="M210 1327l0 500 -2 1 -1 -500 3 -1zm2614 -807l-2614 1307 0 -500 2614 -1307 0 500zm0 0l0 -500 2 -1 0 500 -2 1z"/>
  </g>
  <g>
   <path class="fil3" d="M2824 20l0 500 -3 -1 0 -500 3 1zm2613 1807l-2613 -1307 0 -500 2613 1307 0 500zm0 0l0 -500 3 1 0 500 -3 -1z"/>
  </g>
  <g>
   <path class="fil4" d="M8051 520l0 -500 2 -1 0 500 -2 1zm-5227 2114l5227 -2614 0 500 -5227 2614 0 -500zm0 0l0 500 -3 1 0 -500 3 -1z"/>
  </g>
 </g>
</svg>
